<svg xmlns="http://www.w3.org/2000/svg" width="256" height="256" viewBox="0 0 256 256">
  <defs><linearGradient id="g" x1="0" y1="0" x2="1" y2="1"><stop offset="0" stop-color="#ff3131"/><stop offset="1" stop-color="#ff7a18"/></linearGradient></defs>
  <rect rx="28" width="256" height="256" fill="#0b0b0f"/>
  <path d="M32 170c40-36 88-54 128-54 14 0 24 2 32 6-4-18-14-30-28-36-36-14-92 0-132 28l0 56z" fill="url(#g)" opacity=".85"/>
  <path d="M216 126c-40 36-88 54-128 54-14 0-24-2-32-6 4 18 14 30 28 36 36 14 92 0 132-28l0-56z" fill="url(#g)" opacity=".6"/>
  <circle cx="200" cy="72" r="10" fill="#ff3131"/>
</svg>
